<svg height="66" viewBox="0 0 365 66" width="365" xmlns="http://www.w3.org/2000/svg"><g fill="#fff"><path d="m29.07.58c-.6089806-.14320629-1.2480754-.08351063-1.82.17l-5.13 1.81-2.12.74 2.69 7.38c.1276564.5510891.4942303 1.0166379 1 1.27.6090812.141737 1.2477044.0820854 1.82-.17l5.09-1.78 2.1-.74-2.59-7.41c-.1303277-.54734815-.4965463-1.00878356-1-1.26"/><path d="m34.55 35.5c-.0212866.1843441-.1240262.3494613-.28.45-.2043013.1491714-.447423.2360006-.7.25-1.36.11-3.2-1.28-3.21-1.29-3.632657-2.8705533-6.5235686-6.570783-8.43-10.79 5.7 1.28 10.94 7.85 11 7.92 1.6 2 1.71 3 1.63 3.43m-8.18 4.78c2.37 2.55 1.62 3.56 1.62 3.56-.1437835.1431697-.3371423.2255262-.54.23-.9703101-.1005695-1.8958419-.4597311-2.68-1.04-5.18-3.11-8.25-8.8-9.13-10.59 4.0793782 1.857821 7.7294663 4.5409082 10.72 7.88m-6.59 8.08c2.29 3 1.39 4.06 1.4 4.06-.1709496.1193515-.3718199.1886171-.58.2-1.43.07-3.6-1.68-3.6-1.71-3.8849701-2.9030547-6.8192488-6.8954836-8.43-11.47 5.72 2 11.15 8.8 11.21 8.87m15.12-17.82c-3.508651-4.5605889-8.3764615-7.8875097-13.9-9.5-.15-.64-.78-2.77.69-4s-.78-3.1-.78-3.1l-1.28 1s-2.48 1.64-1.52 5.64h-.24c-1.9265661.1094234-3.7282875.9886635-5 2.44-1.14 1.48-1.48 3.53-1 6.09h-.36c-1.7808536.0816353-3.46124897.8483829-4.69 2.14-1.09098728 1.3435415-1.59232018 3.0711563-1.39 4.79-1.60581363.11194-3.07544962.9422843-4 2.26-1.31 2-1.24 5.07.23 9.13 0 .06 2 6.52 11 15.91l.7.69.07.1.19.2c.2288277.2257662.4426189.4662813.64.72 1.1 1.57 3.5-.5 3.5-.5l-1.11-1.28c-.3796275-.4359627-.7871507-.8468263-1.22-1.23l-.17-.15c-.13-.15-13.51-12.75-11.77-21.32 0 0 .51-1.88 2-2 .13637141-.0127046.27362859-.0127046.41 0 1.43883951 5.9411509 4.9490395 11.17454 9.9 14.76.12.09 3 2.17 5.49 2 .7355261-.035657 1.43865-.313391 2-.79.11-.09 2.82-2.26-1.2-7.67-3.5700013-4.7356996-8.4313168-8.3400178-14-10.38-.23392201-1.2992496.02264138-2.6390807.72-3.76.87648319-1.0125535 2.2015329-1.5193006 3.53-1.35.43 1.23 3.35 9 10.3 13.49.11.08 2.68 2.07 5.08 1.88 1.7247387-.1098905 3.0725489-1.5318522 3.09-3.26.07-1.75-1-3.71-3.06-5.82-.06-.07-6.53-7-13.19-8.46-.15-.58-.67-2.93.39-4.46.69-1 1.94-1.47 3.71-1.4 2.1140826 5.315242 5.4833524 10.039768 9.82 13.77.1.09 2.49 2.15 5.13 1.94.8182117-.0654602 1.6014456-.3600393 2.26-.85.12-.1 2.82-2.47-1-7.65"/><path d="m72.76 29.79v17.57c0 3.66-.7666667 6.2366667-2.3 7.73s-3.7566667 2.24-6.67 2.24c-1.5980012.0441527-3.1906756-.2032202-4.7-.73-1.3100296-.5167625-2.4984579-1.2999673-3.49-2.3l3-3.26c.575969.5094628 1.2596856.8820884 2 1.09.9970593.3080834 2.0365598.4565835 3.08.44.9873606.0840769 1.9699266-.2089065 2.75-.82.7337285-.8520901 1.0749185-1.9736614.94-3.09v-18.87z"/><path d="m91.1 47.9-3.28-10.82-3.39 10.82zm8.47 9.21h-5.66l-1.56-4.72h-9.35l-1.5 4.71h-5.65l8.89-25c.2693993-.7055091.7215043-1.3267221 1.31-1.8.5230964-.347878 1.1422018-.5227665 1.77-.5.6009453-.0292985 1.195825.1316689 1.7.46.5509489.4911233.9499679 1.1295537 1.15 1.84z"/><path d="m117.43 46.5h5c0 3.48-.883333 6.1466667-2.65 8s-4.263333 2.7866667-7.49 2.8c-7.1 0-10.65-4.1033333-10.65-12.31v-2.3c0-6.4666667 1.82-10.52 5.46-12.16 1.636716-.706718 3.40787-1.0479808 5.19-1 2.625952-.1146469 5.202508.7394601 7.24 2.4 1.93061 1.7646805 2.956717 4.3097206 2.79 6.92h-5.07c-.176344-1.2351241-.696085-2.395878-1.5-3.35-.934634-.8419776-2.17672-1.2584204-3.43-1.15-1.539081-.1293021-3.047454.4837068-4.06 1.65-.750583 1.2221504-1.129313 2.636305-1.09 4.07-.053333.6133333-.08 1.4433333-.08 2.49v2.44c0 2.94.416667 4.94 1.25 6 1.004639 1.1377046 2.487328 1.7344869 4 1.61 1.806667 0 3.053333-.4933333 3.74-1.48.82316-1.4018773 1.286922-2.985539 1.35-4.61"/><path d="m139.59 42.64 9.55 14.46h-6.32l-6.55-10.32-3.78 4.99v5.33h-5.43v-27.31h5.43v15.27l10.49-15.27h5.46z"/><path d="m162.06 29.79h5.42v27.31h-5.42z"/><path d="m195.6 29.79v24.55c.018709.7951318-.259361 1.5687352-.78 2.17-.442208.5616777-1.115174.8926445-1.83.9-1.793333 0-3.263333-1.0233333-4.41-3.07l-9.58-14.77v17.53h-5.42v-27.31h5.23l11.39 17.87v-17.87h5.42z"/><path d="m228.33 34.55h-7.45v22.55h-5.42v-22.55h-7.41v-4.76h20.28z"/><path d="m253.18 57.1h-5.42v-11.05h-10.18v11.05h-5.43v-27.31h5.43v11.55h10.18v-11.55h5.42z"/><path d="m277.56 57.1h-9.83c-3.12 0-5.31-.53-6.57-1.59s-1.89-2.9333333-1.89-5.62v-20.1h18.3v4.71h-12.88v6.41h9l-.39 4.76h-8.62v3.83c-.096423.81631.17468 1.6332817.74 2.23.806476.4904438 1.750857.7045972 2.69.61h9.44v4.76z"/><path d="m306.63 49c.0654-.9720219-.164669-1.9411012-.66-2.78-.588267-.688761-1.479851-1.0408992-2.38-.94h-6.24v4.22c-.09394.8153503.202621 1.6271863.8 2.19.790825.4745493 1.711022.6879788 2.63.61h2.81c2 0 3-1.1266667 3-3.38zm-3.4-8.5c.826392.1187568 1.660429-.1588704 2.250779-.7492209.590351-.5903505.867978-1.4243867.749221-2.2507791.118757-.8263924-.15887-1.6604286-.749221-2.2507791-.59035-.5903505-1.424387-.8679777-2.250779-.7492209h-5.89v6zm8.77 8.78c.165572 2.1359532-.558112 4.2454911-2 5.83-1.598215 1.4185657-3.697544 2.1387474-5.83 2h-3.69c-3.066667 0-5.243333-.5233333-6.53-1.57s-1.936667-2.8633333-1.95-5.45v-20.3h11.74c2.666667 0 4.666667.6666667 6 2 1.405575 1.4816346 2.130304 3.4818876 2 5.52.0377 1.2618499-.338042 2.5014457-1.07 3.53-.603253.8746605-1.41416 1.5859225-2.36 2.07 2.546667 1.1733333 3.82 3.2966667 3.82 6.37z"/><path d="m332.53 44.14v-1.42c.076608-1.9994963-.24285-3.9944105-.94-5.87-.726667-1.6866667-2.286667-2.53-4.68-2.53s-3.966667.8433333-4.72 2.53c-.681761 1.8787849-.987558 3.8732615-.9 5.87v1.42c0 3.3333333.466667 5.5566667 1.4 6.67.432106.5403867.98769.9690779 1.62 1.25 1.642719.6783818 3.487281.6783818 5.13 0 .633114-.2799084 1.194016-.7005845 1.64-1.23.430695-.570184.737268-1.2242083.9-1.92.403081-1.563713.588164-3.1756221.55-4.79m5.42-2v2.07c0 4.58-.876667 7.9133333-2.63 10s-4.566667 3.1233333-8.44 3.11c-3.88 0-6.683333-1.0366667-8.41-3.11s-2.59-5.4366667-2.59-10.09v-2c0-4.24.876667-7.3966667 2.63-9.47s4.536667-3.11 8.35-3.11c3.806667 0 6.61 1.0466667 8.41 3.14s2.71 5.25 2.73 9.47"/><path d="m364.63 57.1h-6.71l-5.81-9.51-5.73 9.51h-6.71l9.32-14-8.74-13.31h6.67l5.19 8.83 5.27-8.83h6.63l-8.74 13.31z"/></g></svg>