<svg height="66" viewBox="0 0 37 66" width="37" xmlns="http://www.w3.org/2000/svg"><g fill="#3fb1d3"><path d="m29.07.58c-.6089806-.14320629-1.2480754-.08351063-1.82.17l-5.13 1.81-2.12.74 2.69 7.38c.1276564.5510891.4942303 1.0166379 1 1.27.6090812.141737 1.2477044.0820854 1.82-.17l5.09-1.78 2.1-.74-2.59-7.41c-.1303277-.54734815-.4965463-1.00878356-1-1.26"/><path d="m34.55 35.5c-.0212866.1843441-.1240262.3494613-.28.45-.2043013.1491714-.447423.2360006-.7.25-1.36.11-3.2-1.28-3.21-1.29-3.632657-2.8705533-6.5235686-6.570783-8.43-10.79 5.7 1.28 10.94 7.85 11 7.92 1.6 2 1.71 3 1.63 3.43m-8.18 4.78c2.37 2.55 1.62 3.56 1.62 3.56-.1437835.1431697-.3371423.2255262-.54.23-.9664359-.0887683-1.8916382-.433993-2.68-1-5.18-3.11-8.25-8.8-9.13-10.59 4.0793782 1.857821 7.7294663 4.5409082 10.72 7.88m-6.59 8.08c2.29 3 1.39 4.06 1.4 4.06-.1709496.1193515-.3718199.1886171-.58.2-1.43.07-3.6-1.68-3.6-1.71-3.8913436-2.9137114-6.8262116-6.9208681-8.43-11.51 5.72 2 11.15 8.8 11.21 8.87m15.12-17.82c-3.508651-4.5605889-8.3764615-7.8875097-13.9-9.5-.15-.64-.78-2.77.69-4s-.78-3.1-.78-3.1l-1.28 1s-2.48 1.64-1.52 5.64h-.24c-1.9265661.1094234-3.7282875.9886635-5 2.44-1.14 1.48-1.48 3.53-1 6.09h-.36c-1.7808536.0816353-3.46124897.8483829-4.69 2.14-1.09098728 1.3435415-1.59232018 3.0711563-1.39 4.79-1.60581363.11194-3.07544962.9422843-4 2.26-1.31 2-1.24 5.07.23 9.13 0 .06 2 6.52 11 15.91l.7.69.07.1.19.2c.2288277.2257662.4426189.4662813.64.72 1.1 1.57 3.5-.5 3.5-.5l-1.11-1.28c-.3796275-.4359627-.7871507-.8468263-1.22-1.23l-.17-.15c-.13-.15-13.51-12.75-11.77-21.32 0 0 .51-1.88 2-2 .13637141-.0127046.27362859-.0127046.41 0 1.43883951 5.9411509 4.9490395 11.17454 9.9 14.76.12.09 3 2.17 5.49 2 .7355261-.035657 1.43865-.313391 2-.79.11-.09 2.82-2.26-1.2-7.67-3.5700013-4.7356996-8.4313168-8.3400178-14-10.38-.23392201-1.2992496.02264138-2.6390807.72-3.76.87648319-1.0125535 2.2015329-1.5193006 3.53-1.35.43 1.23 3.35 9 10.3 13.49.11.08 2.68 2.07 5.08 1.88 1.7247387-.1098905 3.0725489-1.5318522 3.09-3.26.07-1.75-1-3.71-3.06-5.82-.06-.07-6.53-7-13.19-8.46-.15-.58-.67-2.93.39-4.46.69-1 1.94-1.47 3.71-1.4 2.1140826 5.315242 5.4833524 10.039768 9.82 13.77.1.09 2.49 2.15 5.13 1.94.8182117-.0654602 1.6014456-.3600393 2.26-.85.12-.1 2.82-2.47-1-7.65"/></g></svg>